<?xml version="1.0" standalone="no"?>
<!DOCTYPE svg PUBLIC "-//W3C//DTD SVG 20010904//EN"
 "http://www.w3.org/TR/2001/REC-SVG-20010904/DTD/svg10.dtd">
<svg version="1.0" xmlns="http://www.w3.org/2000/svg"
 width="2352.000000pt" height="2352.000000pt" viewBox="0 0 2352.000000 2352.000000"
 preserveAspectRatio="xMidYMid meet">
<metadata>
Created by potrace 1.14, written by Peter Selinger 2001-2017
</metadata>
<g transform="translate(0.000000,2352.000000) scale(0.100000,-0.100000)"
fill="#000000" stroke="none">
<path d="M13114 14242 l-42 -3 0 -1995 c0 -1097 4 -1996 8 -1999 8 -5 225 -9
245 -5 6 1 13 1 18 0 4 -1 25 -2 47 -2 22 0 43 1 48 2 4 1 12 1 17 0 6 -1 37
-1 70 -1 74 2 77 2 195 1 52 0 104 1 115 3 20 4 20 12 20 1997 0 1985 0 1992
-20 2000 -11 4 -27 4 -36 -1 -9 -4 -19 -6 -22 -2 -7 6 -587 11 -663 5z"/>
<path d="M14639 14129 c-156 -37 -270 -131 -306 -252 -19 -63 -10 -194 17
-251 50 -104 175 -188 320 -214 55 -10 220 -9 237 1 5 3 21 8 36 11 55 10 157
68 206 117 66 66 92 142 87 253 -5 117 -50 198 -146 262 -128 85 -289 111
-451 73z"/>
<path d="M1320 13001 c0 -3 -15 -6 -32 -7 -18 -1 -53 -4 -78 -7 -39 -6 -64
-11 -150 -32 -114 -29 -158 -45 -280 -103 -359 -172 -613 -482 -709 -867 -52
-208 -60 -462 -21 -680 5 -27 12 -69 16 -92 3 -24 10 -43 13 -43 4 0 7 -8 8
-17 5 -64 92 -253 170 -370 75 -114 261 -303 330 -335 13 -6 23 -15 23 -20 0
-4 5 -8 12 -8 6 0 19 -6 27 -14 22 -20 215 -116 233 -116 8 0 18 -4 23 -8 6
-5 30 -14 55 -21 25 -8 56 -17 70 -21 28 -10 110 -27 155 -34 17 -3 44 -7 60
-10 131 -22 463 -22 570 0 11 2 38 7 60 9 75 9 224 46 307 76 46 17 87 31 92
32 5 1 47 21 94 45 322 162 532 418 577 705 l6 34 -395 0 c-218 0 -393 -3
-391 -7 7 -12 -42 -104 -73 -136 -50 -52 -171 -125 -185 -113 -2 2 -10 -1 -18
-8 -55 -45 -411 -65 -554 -30 -79 18 -169 56 -221 91 -53 36 -164 145 -164
161 0 3 -11 23 -25 44 -39 57 -101 231 -92 255 5 12 78 13 96 1 5 -3 12 -2 14
2 6 10 99 9 114 0 7 -4 14 -4 17 1 5 8 79 7 103 -2 7 -3 13 -2 13 2 0 4 43 7
95 7 52 0 95 -3 95 -7 0 -4 6 -5 13 -2 24 9 98 10 103 2 3 -5 10 -5 17 -1 14
9 107 10 107 1 0 -4 6 -5 13 -2 24 9 98 10 103 2 3 -5 10 -5 17 -1 12 7 107
11 107 3 0 -3 19 -4 42 -2 110 7 138 6 138 -1 0 -5 5 -5 11 -1 16 9 110 11
116 1 2 -4 9 -4 15 0 16 9 138 10 138 0 0 -5 5 -5 11 -1 16 10 109 11 109 1 0
-5 5 -5 11 -1 16 10 189 11 189 1 0 -5 5 -5 11 -1 16 10 109 11 109 1 0 -5 5
-5 11 -1 16 9 109 11 109 1 0 -4 8 -4 18 1 9 4 31 7 48 6 29 -2 32 1 37 29 11
76 -2 413 -19 487 -3 14 -8 36 -10 50 -9 46 -33 134 -53 190 -32 93 -119 267
-148 298 -7 7 -20 26 -30 42 -9 17 -21 30 -25 30 -4 0 -8 5 -8 12 0 17 -186
196 -256 245 -54 39 -208 121 -294 157 -30 12 -134 45 -165 52 -5 1 -30 7 -55
13 -25 6 -63 14 -85 16 -22 3 -53 8 -70 11 -43 8 -445 13 -445 5z m354 -595
c163 -32 248 -75 349 -179 62 -64 104 -138 130 -227 26 -91 29 -110 15 -111
-7 -1 -307 -2 -667 -2 -520 -2 -655 1 -658 11 -6 14 1 34 60 172 18 42 96 141
145 184 91 80 224 138 351 153 25 3 47 6 49 8 4 3 202 -5 226 -9z"/>
<path d="M4396 13003 c-2 -2 -23 -6 -47 -9 -24 -3 -62 -10 -84 -16 -53 -14
-55 -14 -93 -23 -18 -4 -35 -12 -38 -16 -3 -5 -12 -9 -20 -9 -25 0 -165 -70
-249 -124 -70 -46 -207 -161 -227 -191 -3 -5 -16 -21 -28 -35 -12 -14 -34 -41
-49 -60 -14 -19 -28 -37 -32 -40 -10 -9 -107 -184 -119 -215 -7 -16 -17 -41
-22 -55 -6 -14 -12 -29 -14 -35 -1 -5 -9 -30 -17 -55 -42 -119 -70 -323 -70
-495 0 -103 10 -276 16 -295 3 -8 8 -35 11 -60 41 -346 264 -707 552 -892 123
-80 299 -155 377 -161 9 -1 17 -4 17 -7 0 -3 8 -6 18 -7 25 -2 97 -12 97 -13
0 -9 226 -12 297 -5 48 5 179 30 186 35 1 2 5 3 10 4 59 14 216 87 288 136 61
41 151 116 184 152 13 16 29 28 35 28 7 0 10 -223 10 -697 -1 -384 1 -703 3
-710 3 -8 107 -11 400 -12 l397 0 -2 1897 c-1 1043 -2 1906 -2 1918 -1 18 -8
21 -43 22 -59 2 -87 2 -130 -1 -21 -1 -38 1 -38 5 0 4 -10 4 -22 0 -13 -4 -39
-6 -58 -5 -40 3 -153 3 -190 0 -14 -2 -35 1 -47 5 -13 4 -23 4 -23 0 0 -6 -98
-8 -125 -2 -5 1 -14 1 -20 0 -5 -1 -30 -2 -55 -2 l-45 1 0 -155 c0 -85 0 -154
-1 -154 -1 0 -23 21 -49 46 -50 48 -168 137 -219 165 -99 54 -247 112 -316
122 -19 3 -64 11 -100 16 -59 9 -295 12 -304 4z m515 -678 c238 -60 425 -253
463 -476 12 -71 13 -421 2 -469 -3 -14 -9 -38 -12 -55 -3 -16 -10 -35 -16 -42
-6 -7 -7 -13 -4 -13 4 0 1 -10 -6 -22 -7 -13 -11 -26 -10 -30 1 -3 -5 -12 -13
-18 -8 -7 -15 -17 -15 -22 0 -13 -48 -76 -95 -124 -62 -63 -203 -148 -265
-159 -3 -1 -18 -4 -35 -8 -16 -4 -41 -10 -55 -12 -31 -7 -188 -7 -198 -1 -4 2
-26 7 -48 10 -156 24 -346 167 -417 316 -61 126 -80 224 -81 405 0 159 17 281
51 347 7 15 12 29 11 31 -3 3 29 70 44 92 4 5 26 32 50 59 97 110 233 183 378
202 25 4 46 7 48 9 9 8 170 -6 223 -20z"/>
<path d="M10998 13005 c-2 -1 -30 -6 -63 -9 -175 -19 -445 -89 -492 -128 -7
-6 -13 -7 -13 -4 0 9 -120 -56 -195 -107 -79 -53 -213 -187 -260 -261 -86
-136 -127 -267 -139 -448 -2 -38 0 -47 16 -51 10 -3 20 -1 23 4 3 4 13 5 22 2
9 -3 174 -6 367 -6 349 0 351 0 352 20 9 179 126 312 307 352 90 21 116 23
233 26 200 3 327 -23 433 -90 84 -52 129 -122 135 -210 4 -52 2 -58 -28 -89
-32 -32 -100 -59 -176 -70 -19 -3 -46 -8 -60 -11 -14 -3 -45 -8 -70 -10 -25
-2 -55 -6 -68 -9 -13 -3 -53 -8 -90 -11 -37 -4 -78 -8 -92 -10 -25 -4 -90 -11
-190 -21 -30 -3 -66 -7 -80 -9 -14 -2 -43 -7 -65 -10 -51 -7 -61 -9 -210 -40
-17 -3 -99 -26 -115 -31 -8 -3 -17 -5 -20 -6 -3 0 -34 -11 -70 -25 -36 -14
-71 -25 -77 -26 -7 0 -13 -4 -13 -9 0 -4 -6 -8 -13 -8 -18 0 -180 -94 -219
-127 -40 -34 -115 -109 -146 -146 -36 -44 -90 -157 -108 -227 -19 -77 -27
-298 -12 -362 5 -24 12 -53 14 -66 17 -87 93 -218 174 -302 77 -79 271 -200
320 -200 10 0 21 -4 24 -9 3 -4 20 -12 38 -16 18 -4 35 -8 38 -9 166 -52 494
-66 683 -31 15 3 37 7 50 9 19 4 71 16 127 30 146 38 348 146 445 238 22 21
43 38 46 38 4 0 12 -21 19 -47 17 -59 72 -168 106 -207 20 -22 34 -28 69 -30
25 0 45 3 45 7 0 5 5 5 11 2 9 -6 328 -10 354 -5 6 1 15 2 20 1 22 -5 287 -2
291 2 3 3 -5 16 -18 30 -27 30 -86 145 -91 177 -2 8 -5 20 -9 25 -3 6 -8 28
-12 50 -3 22 -9 60 -12 85 -4 25 -8 378 -9 785 -2 407 -4 740 -5 740 -1 0 -3
11 -5 25 -10 100 -92 330 -117 330 -5 0 -8 7 -8 15 0 8 -4 15 -10 15 -5 0 -10
5 -10 10 0 18 -95 119 -153 163 -16 12 -34 27 -40 33 -22 19 -142 96 -153 98
-7 1 -18 7 -25 13 -54 42 -339 128 -494 149 -22 3 -56 8 -75 11 -38 6 -426 13
-432 8z m738 -1627 c-7 -99 -13 -131 -41 -208 -56 -158 -231 -310 -410 -356
-11 -3 -24 -6 -30 -8 -79 -20 -125 -25 -240 -25 -132 -1 -192 9 -269 43 -110
49 -158 120 -157 237 0 186 130 256 561 303 105 12 133 15 164 20 17 3 54 8
81 11 28 4 66 10 85 15 19 5 57 11 84 15 27 3 52 8 55 10 3 1 24 6 45 9 22 4
42 9 45 11 2 3 11 5 19 5 11 0 13 -15 8 -82z"/>
<path d="M19357 13004 c-2 -3 -26 -7 -53 -10 -61 -6 -109 -12 -109 -14 0 -1
-13 -4 -30 -6 -184 -30 -465 -159 -625 -290 -76 -62 -196 -193 -250 -275 -99
-146 -178 -333 -204 -484 -3 -16 -8 -41 -11 -55 -26 -128 -26 -389 0 -545 27
-164 82 -327 147 -438 15 -26 28 -52 28 -57 0 -4 3 -10 8 -12 4 -1 25 -30 47
-63 89 -135 289 -309 455 -396 36 -18 68 -38 72 -44 4 -5 8 -7 8 -3 0 4 24 -3
53 -16 49 -22 179 -64 222 -72 11 -2 31 -6 45 -9 173 -37 474 -46 665 -20 22
3 60 7 85 10 25 3 83 15 130 26 47 12 90 22 95 23 28 6 121 40 130 47 5 5 15
9 23 9 19 0 186 85 252 128 235 155 401 393 435 622 l5 37 -372 1 c-205 0
-383 -1 -395 -4 -13 -2 -23 -12 -23 -21 0 -23 -58 -114 -94 -145 -55 -50 -172
-103 -271 -124 -91 -20 -312 -26 -412 -11 -264 38 -464 221 -539 495 -15 55
-16 65 -3 72 8 6 15 6 17 0 2 -6 9 -7 15 -3 13 8 102 7 117 -2 5 -3 10 -2 10
2 0 5 17 7 38 6 53 -4 138 -4 200 -1 28 2 52 -1 52 -5 0 -5 5 -5 11 -1 16 9
110 11 116 1 2 -4 9 -4 15 0 16 9 138 10 138 0 0 -5 5 -5 11 -1 16 9 109 11
109 1 0 -4 8 -4 18 0 9 5 55 8 102 6 129 -3 141 -3 203 -1 31 2 57 0 57 -4 0
-4 6 -5 13 -2 24 9 98 10 103 2 3 -5 10 -5 17 -1 14 9 107 10 107 1 0 -4 6 -5
13 -2 24 9 98 10 103 2 3 -5 10 -5 17 -1 14 9 107 10 107 1 0 -4 6 -5 13 -2
24 9 98 10 103 2 3 -5 10 -5 17 -1 14 9 107 10 107 1 0 -4 6 -5 13 -2 23 8 98
10 103 2 3 -4 15 -4 27 1 12 4 27 6 33 4 6 -2 14 4 16 14 7 27 1 382 -7 423
-6 34 -10 57 -19 119 -23 147 -117 372 -218 518 -49 71 -173 205 -244 264 -89
74 -296 188 -399 219 -22 6 -47 14 -55 17 -8 3 -19 7 -25 8 -5 2 -28 8 -50 13
-22 6 -56 14 -75 17 -19 3 -48 8 -65 11 -16 3 -43 8 -60 10 -38 7 -432 13
-438 8z m343 -598 c107 -18 215 -61 282 -113 42 -33 127 -125 133 -144 4 -10
11 -19 16 -19 5 0 9 -8 9 -18 0 -10 6 -27 14 -38 8 -11 22 -49 31 -85 23 -87
25 -99 17 -100 -4 -1 -305 -2 -670 -2 l-663 -2 4 30 c6 40 54 148 93 210 93
147 275 259 455 280 29 3 55 7 56 9 5 4 187 -1 223 -8z"/>
<path d="M22865 13000 c-125 -19 -247 -62 -350 -124 -83 -51 -179 -143 -243
-233 -13 -18 -26 -33 -30 -33 -4 0 -7 78 -7 172 0 173 0 173 -22 172 -13 0
-23 3 -23 8 0 5 -5 6 -10 3 -15 -9 -184 -10 -198 -1 -7 4 -12 4 -12 -1 0 -10
-93 -9 -109 1 -6 4 -11 4 -11 -1 0 -4 -49 -8 -110 -8 -60 0 -110 3 -110 7 0 4
-8 4 -17 1 -22 -8 -64 -8 -86 0 -9 3 -19 3 -21 -2 -3 -4 -18 -6 -34 -3 -29 4
-29 3 -30 -41 -1 -25 -2 -49 -3 -53 -1 -5 0 -13 1 -19 2 -13 2 -87 0 -100 -1
-5 -1 -14 0 -20 2 -13 2 -147 0 -160 -1 -5 -1 -14 0 -20 1 -5 1 -28 1 -50 -1
-22 -1 -47 -1 -55 0 -8 0 -53 0 -100 0 -47 0 -92 0 -100 0 -50 0 -91 -1 -97
-1 -5 0 -11 1 -15 4 -17 3 -89 -2 -93 -3 -3 -2 -22 2 -43 3 -20 3 -49 -1 -64
-4 -16 -4 -30 0 -32 4 -3 5 -27 2 -53 -4 -26 -4 -64 -1 -83 3 -19 3 -56 -1
-83 -3 -26 -3 -50 0 -52 5 -5 5 -78 1 -100 -1 -5 -1 -14 0 -20 1 -5 1 -28 1
-50 -2 -44 -2 -50 0 -115 0 -25 0 -49 -1 -55 -1 -5 -1 -14 0 -20 1 -5 1 -28 1
-50 -1 -22 -1 -47 -1 -55 0 -8 0 -53 0 -100 0 -47 0 -92 0 -100 0 -50 0 -91
-1 -97 -1 -5 0 -11 1 -15 4 -17 3 -89 -2 -93 -3 -3 -2 -22 2 -43 3 -20 3 -49
-1 -64 -4 -16 -4 -30 0 -32 4 -3 5 -27 2 -53 -4 -26 -4 -64 -1 -83 3 -19 3
-46 -1 -60 -3 -14 -3 -34 1 -44 4 -11 4 -36 0 -56 -11 -63 13 -93 65 -80 6 1
16 2 23 2 9 -1 164 -2 235 -1 6 0 41 0 77 0 36 -1 74 -1 85 -1 11 0 64 0 117
-1 53 -1 100 1 105 4 5 3 15 2 22 -2 7 -5 25 -5 40 -2 l26 7 1 665 c1 365 4
693 8 729 9 87 34 194 58 250 38 87 35 82 93 166 60 88 191 179 306 214 157
48 359 46 493 -4 36 -14 67 -22 69 -18 7 12 17 61 23 109 3 26 7 50 9 53 2 3
6 24 9 46 4 22 9 51 11 64 3 14 8 41 11 60 3 19 7 42 9 50 2 8 7 30 10 48 10
63 15 88 26 142 26 129 24 140 -26 147 -11 2 -31 7 -45 13 -14 5 -41 12 -60
15 -55 10 -319 13 -375 5z"/>
<path d="M6760 12960 c-8 -5 -18 -6 -23 -3 -5 3 -12 1 -16 -5 -8 -13 -5 -1713
3 -1817 30 -352 138 -596 337 -760 92 -76 239 -143 352 -160 15 -3 39 -8 55
-11 45 -11 343 -13 397 -3 28 6 63 12 78 14 50 7 190 58 257 93 36 19 75 40
87 46 13 6 23 14 23 18 0 4 12 14 28 22 36 19 138 118 190 184 23 30 42 52 43
50 0 -1 2 -87 2 -190 1 -102 5 -189 9 -193 6 -6 237 -10 263 -5 6 1 13 1 18 0
4 -1 25 -2 47 -2 22 0 43 1 48 2 4 1 12 1 17 0 6 -1 37 -1 70 -1 68 2 64 2
200 2 55 0 105 0 111 1 8 1 10 389 10 1357 l-1 1356 -47 0 c-27 0 -48 3 -48 7
0 4 -10 4 -22 0 -27 -9 -81 -8 -96 2 -6 3 -13 3 -15 -2 -3 -4 -23 -6 -44 -5
-41 3 -152 3 -193 0 -14 -2 -35 1 -47 5 -13 4 -23 4 -23 0 0 -6 -98 -8 -125
-2 -5 1 -14 1 -20 0 -5 -1 -33 -2 -61 -1 l-51 0 0 -712 c0 -392 -3 -734 -7
-762 -13 -98 -18 -121 -38 -180 -72 -210 -201 -358 -363 -416 -45 -17 -88 -23
-168 -25 -109 -3 -169 8 -247 44 -83 38 -187 182 -204 282 -2 14 -7 32 -10 40
-16 42 -19 167 -23 905 -2 440 -6 806 -8 813 -3 7 -18 12 -37 11 -18 -1 -37
-1 -43 1 -5 1 -12 1 -15 0 -16 -6 -110 -4 -110 3 0 5 -5 5 -11 2 -14 -9 -139
-12 -139 -3 0 4 -6 5 -14 2 -23 -9 -216 -10 -216 -1 0 5 -5 5 -11 2 -14 -10
-128 -12 -132 -3 -1 4 -9 3 -17 -2z"/>
<path d="M14487 12964 c-3 -4 -27 -7 -53 -8 l-48 -1 -1 -1357 c0 -1199 2
-1356 15 -1357 21 0 141 -1 163 0 9 0 92 -1 185 -2 92 0 172 0 177 1 6 1 15 1
20 0 20 -4 147 0 155 5 5 3 11 1 14 -4 4 -5 18 -6 32 -2 l27 7 1 1357 1 1357
-25 1 c-14 1 -29 0 -35 -1 -9 -2 -54 -2 -205 0 -19 0 -52 -1 -72 -3 -21 -1
-38 1 -38 5 0 4 -10 4 -22 0 -13 -4 -48 -6 -78 -5 -67 3 -104 3 -150 1 -20 -1
-40 1 -46 5 -6 3 -14 4 -17 1z"/>
<path d="M15746 12963 c-3 -3 -41 -7 -83 -7 l-78 -1 -1 -307 -1 -308 26 0 c14
0 320 -1 680 -1 l653 0 -18 -21 c-11 -11 -39 -42 -64 -68 -25 -26 -76 -80
-114 -121 -77 -83 -260 -278 -321 -344 -22 -23 -89 -95 -150 -160 -60 -65
-123 -132 -140 -150 -26 -28 -195 -208 -285 -305 -18 -19 -83 -88 -144 -154
-61 -65 -126 -134 -144 -154 l-32 -35 2 -290 3 -291 27 -7 c16 -4 30 -3 34 2
3 5 10 7 15 3 12 -7 283 -9 296 -1 4 2 17 1 28 -3 11 -4 29 -4 41 0 11 5 27 5
34 0 7 -4 26 -4 41 0 16 5 31 5 34 0 2 -4 19 -5 37 -1 18 4 52 4 76 1 23 -4
42 -3 42 2 0 5 5 6 11 3 13 -9 284 -9 297 -1 6 3 13 2 16 -3 3 -5 21 -6 40 -1
19 4 40 4 46 0 7 -4 26 -4 41 0 16 5 31 5 34 0 2 -4 19 -5 37 -1 18 4 52 4 76
1 23 -4 42 -3 42 2 0 5 5 6 11 3 12 -8 283 -10 296 -2 4 2 17 1 28 -3 11 -4
29 -4 41 0 11 5 27 5 34 0 7 -4 26 -4 41 0 16 5 31 5 34 0 2 -4 19 -5 37 -1
18 4 52 4 76 1 23 -4 42 -3 42 2 0 5 5 6 11 3 11 -7 269 -9 304 -2 19 4 20 12
21 303 0 164 -1 304 -3 309 -2 7 -248 10 -713 9 -391 -1 -710 1 -710 4 0 3 15
19 33 37 17 18 70 74 117 125 47 51 99 107 115 124 61 66 241 259 270 291 36
39 215 231 265 285 52 55 224 241 255 275 39 42 231 248 288 308 26 28 48 53
48 56 1 3 2 137 3 297 l1 292 -45 2 c-43 2 -55 1 -127 -3 -18 -1 -33 1 -33 5
0 4 -11 4 -23 -1 -13 -5 -30 -5 -37 -1 -8 5 -19 6 -24 2 -6 -3 -26 -5 -46 -4
-19 1 -48 2 -65 2 -16 -1 -48 -1 -70 0 -43 0 -85 -1 -125 -4 -14 -1 -33 2 -42
7 -10 4 -18 4 -18 0 0 -5 -26 -7 -57 -5 -32 1 -62 3 -68 3 -22 -1 -182 -2
-215 -1 -19 0 -52 -1 -72 -3 -21 -1 -38 1 -38 5 0 4 -10 4 -22 0 -13 -4 -36
-6 -53 -5 -41 3 -83 4 -127 0 -21 -1 -38 1 -38 6 0 4 -5 5 -10 2 -10 -6 -92
-9 -115 -5 -5 1 -21 1 -35 0 -58 -6 -76 -5 -92 3 -10 4 -18 4 -18 0 0 -5 -26
-7 -57 -5 -32 1 -62 3 -68 3 -174 -5 -215 -5 -215 1 0 4 -8 4 -17 1 -21 -8
-64 -9 -85 -1 -9 4 -19 4 -22 1z"/>
</g>
</svg>
